<?xml version="1.0" encoding="UTF-8" standalone="no"?>
<svg
   viewBox="0 0 2554.9273 540.64605"
   version="1.1"
   id="svg1"
   sodipodi:docname="pelada-logo.svg"
   width="2554.9272"
   height="540.64606"
   inkscape:version="1.3.2 (091e20ef0f, 2023-11-25)"
   xmlns:inkscape="http://www.inkscape.org/namespaces/inkscape"
   xmlns:sodipodi="http://sodipodi.sourceforge.net/DTD/sodipodi-0.dtd"
   xmlns:xlink="http://www.w3.org/1999/xlink"
   xmlns="http://www.w3.org/2000/svg"
   xmlns:svg="http://www.w3.org/2000/svg">
  <defs
     id="defs1">
    <linearGradient
       id="linearGradient6"
       inkscape:collect="always">
      <stop
         style="stop-color:#2980b9;stop-opacity:1;"
         offset="0"
         id="stop6" />
      <stop
         style="stop-color:#8e44ad;stop-opacity:1;"
         offset="1"
         id="stop7" />
    </linearGradient>
    <linearGradient
       inkscape:collect="always"
       xlink:href="#linearGradient6"
       id="linearGradient7"
       x1="1.192602"
       y1="4.3108263"
       x2="2518.5977"
       y2="515.22845"
       gradientUnits="userSpaceOnUse" />
    <linearGradient
       inkscape:collect="always"
       xlink:href="#linearGradient6"
       id="linearGradient8"
       gradientUnits="userSpaceOnUse"
       x1="1.192602"
       y1="4.3108263"
       x2="2518.5977"
       y2="515.22845" />
    <linearGradient
       inkscape:collect="always"
       xlink:href="#linearGradient6"
       id="linearGradient9"
       gradientUnits="userSpaceOnUse"
       x1="1.192602"
       y1="4.3108263"
       x2="2518.5977"
       y2="515.22845"
       gradientTransform="translate(0,2.9601788)" />
    <linearGradient
       inkscape:collect="always"
       xlink:href="#linearGradient6"
       id="linearGradient10"
       gradientUnits="userSpaceOnUse"
       x1="1.192602"
       y1="4.3108263"
       x2="2518.5977"
       y2="515.22845"
       gradientTransform="translate(0,2.9601788)" />
  </defs>
  <sodipodi:namedview
     id="namedview1"
     pagecolor="#ffffff"
     bordercolor="#000000"
     borderopacity="0.25"
     inkscape:showpageshadow="2"
     inkscape:pageopacity="0.0"
     inkscape:pagecheckerboard="0"
     inkscape:deskcolor="#d1d1d1"
     inkscape:zoom="0.3828125"
     inkscape:cx="978.28571"
     inkscape:cy="112.32653"
     inkscape:window-width="2560"
     inkscape:window-height="982"
     inkscape:window-x="0"
     inkscape:window-y="28"
     inkscape:window-maximized="1"
     inkscape:current-layer="g5" />
  <!--!Font Awesome Free 6.5.2 by @fontawesome - https://fontawesome.com License - https://fontawesome.com/license/free Copyright 2024 Fonticons, Inc.-->
  <text
     xml:space="preserve"
     style="font-weight:900;font-size:192px;font-family:'Hurme Geometric Sans 4';-inkscape-font-specification:'Hurme Geometric Sans 4 Heavy';text-align:center;letter-spacing:0px;text-anchor:middle;fill:#000000;stroke-width:12.3402"
     x="805.08087"
     y="508.99805"
     id="text3"><tspan
       sodipodi:role="line"
       id="tspan3"
       x="805.08087"
       y="508.99805" /></text>
  <g
     id="g5"
     style="fill:url(#linearGradient7)"
     transform="translate(18.765442,14.323029)">
    <path
       d="m 417.3,360.1 -71.6,-4.8 c -5.2,-0.3 -10.3,1.1 -14.5,4.2 -4.2,3.1 -7.2,7.4 -8.4,12.5 l -17.6,69.6 c -15.7,4.2 -32.2,6.4 -49.2,6.4 -17,0 -33.5,-2.2 -49.2,-6.4 L 189.2,372 c -1.3,-5 -4.3,-9.4 -8.4,-12.5 -4.1,-3.1 -9.3,-4.5 -14.5,-4.2 l -71.6,4.8 C 77.1,332.9 66.2,300.9 64.3,266.5 L 125,228.3 c 4.4,-2.8 7.6,-7 9.2,-11.9 1.6,-4.9 1.4,-10.2 -0.5,-15 L 107,134.8 C 128,109.2 155.3,89 186.7,76.9 l 55.2,46 c 4,3.3 9,5.1 14.1,5.1 5.1,0 10.2,-1.8 14.1,-5.1 l 55.2,-46 c 31.3,12.1 58.7,32.3 79.6,57.9 l -26.7,66.6 c -1.9,4.8 -2.1,10.1 -0.5,15 1.6,4.9 4.9,9.1 9.2,11.9 l 60.7,38.2 c -1.9,34.4 -12.8,66.4 -30.4,93.6 z M 256,512 a 256,256 0 1 0 0,-512 256,256 0 1 0 0,512 z m 14.1,-325.7 c -8.4,-6.1 -19.8,-6.1 -28.2,0 L 194,221 c -8.4,6.1 -11.9,16.9 -8.7,26.8 l 18.3,56.3 c 3.2,9.9 12.4,16.6 22.8,16.6 h 59.2 c 10.4,0 19.6,-6.7 22.8,-16.6 l 18.3,-56.3 c 3.2,-9.9 -0.3,-20.7 -8.7,-26.8 l -47.9,-34.8 z"
       id="path1"
       style="fill:url(#linearGradient8)" />
    <path
       style="font-weight:900;font-size:441.799px;font-family:Montserrat;-inkscape-font-specification:'Montserrat Heavy';text-align:center;letter-spacing:0px;text-anchor:middle;fill:url(#linearGradient9);stroke-width:28.3952"
       d="M 563.31909,344.28311 V 35.023804 h 148.88626 q 43.29631,0 74.66404,14.137568 31.80953,14.137568 49.03969,40.645509 17.23016,26.066139 17.23016,61.851859 0,35.78572 -17.23016,61.85186 -17.23016,26.06615 -49.03969,40.64551 -31.36773,14.13757 -74.66404,14.13757 h -91.01059 l 46.38889,-44.6217 v 120.61113 z m 104.26456,-109.12435 -46.38889,-47.2725 h 84.38361 q 21.64815,0 31.80953,-9.71958 10.60317,-9.71957 10.60317,-26.50794 0,-16.78836 -10.60317,-26.50794 -10.16138,-9.71958 -31.80953,-9.71958 h -84.38361 l 46.38889,-47.27249 z m 315.00262,-85.26721 h 137.84133 v 75.10583 H 982.58627 Z m 7.06878,115.75134 h 154.62965 v 78.64022 H 887.15768 V 35.023804 H 1138.5413 V 113.66403 H 989.65505 Z m 194.83345,78.64022 V 35.023804 h 104.2646 V 263.43389 h 139.6085 v 80.84922 z m 243.4317,0 135.1905,-309.259306 H 1665.608 L 1800.7985,344.28311 H 1692.9996 L 1593.153,84.505293 h 40.6455 l -99.8466,259.777817 z m 80.4074,-53.89948 26.5079,-75.10583 h 142.2593 l 26.5079,75.10583 z m 309.2592,53.89948 V 35.023804 h 152.4206 q 51.6905,0 91.0106,18.997357 39.3202,18.555559 61.4101,53.015879 22.09,34.46033 22.09,82.17462 0,48.15609 -22.09,83.05821 -22.0899,34.46033 -61.4101,53.45768 -39.3201,18.55556 -91.0106,18.55556 z m 104.2646,-81.29102 h 43.7381 q 22.0899,0 38.4365,-8.39418 16.7883,-8.39418 26.0661,-24.74074 9.2778,-16.78836 9.2778,-40.64551 0,-23.41535 -9.2778,-39.76191 -9.2778,-16.34657 -26.0661,-24.74075 -16.3466,-8.39418 -38.4365,-8.39418 h -43.7381 z m 222.6666,81.29102 135.1905,-309.259306 h 102.4974 l 135.1905,309.259306 h -107.799 L 2309.7508,84.505293 h 40.6455 l -99.8465,259.777817 z m 80.4074,-53.89948 26.508,-75.10583 h 142.2592 l 26.508,75.10583 z"
       id="text2"
       aria-label="PELADA" />
    <path
       style="font-style:italic;font-weight:900;font-size:208.303px;font-family:Montserrat;-inkscape-font-specification:'Montserrat Heavy Italic';text-align:center;letter-spacing:0px;text-anchor:middle;fill:url(#linearGradient10);stroke-width:13.388"
       d="m 1999.9594,476.97619 q -11.4567,0 -18.7473,-6.874 -7.0823,-7.0823 -7.0823,-17.91406 0,-13.12309 8.5404,-21.0386 8.7488,-7.91551 21.0386,-7.91551 11.665,0 18.539,6.87399 7.0823,6.874 7.0823,17.91406 0,8.74873 -3.9578,15.20612 -3.9577,6.45739 -10.6234,10.20685 -6.6657,3.54115 -14.7895,3.54115 z m 106.0264,0 q -18.7473,0 -32.7036,-6.45739 -13.9563,-6.6657 -21.6635,-18.53897 -7.7072,-11.87327 -7.7072,-27.7043 0,-18.74727 9.1653,-33.53678 9.1653,-14.78951 25.413,-23.32994 16.2476,-8.54042 37.2862,-8.54042 20.4137,0 35.4115,8.95703 14.9978,8.95703 21.0386,24.37145 l -39.9941,18.33066 q -2.9163,-7.91551 -7.9156,-11.24836 -4.7909,-3.33285 -10.8317,-3.33285 -6.2491,0 -11.2484,3.33285 -4.9992,3.12455 -7.9155,8.74873 -2.7079,5.62418 -2.7079,13.33139 0,8.12382 4.5826,13.33139 4.5827,5.20758 13.3314,5.20758 6.874,0 12.0816,-3.33285 5.2076,-3.33285 9.1653,-11.24836 l 34.37,19.99708 q -8.3321,14.99782 -23.7465,23.32994 -15.2061,8.33212 -35.4115,8.33212 z m 126.6484,0 q -18.7472,0 -32.7035,-6.45739 -13.9563,-6.6657 -21.6635,-18.53897 -7.4989,-11.87327 -7.4989,-27.7043 0,-18.74727 9.1653,-33.53678 9.1653,-14.78951 25.2047,-23.32994 16.0393,-8.54042 36.6613,-8.54042 18.9556,0 32.7035,6.6657 13.9563,6.45739 21.4553,18.33066 7.7072,11.66497 7.7072,27.7043 0,18.74727 -9.1654,33.53678 -9.1653,14.78951 -25.2046,23.32994 -15.8311,8.54042 -36.6614,8.54042 z m 2.708,-36.66133 q 6.2491,0 10.8317,-3.12454 4.5827,-3.33285 7.0823,-9.16534 2.708,-6.04078 2.708,-14.1646 0,-7.2906 -4.3744,-12.70648 -4.3743,-5.62418 -12.4982,-5.62418 -6.0407,0 -10.8317,3.33285 -4.5827,3.12454 -7.2906,9.16533 -2.4997,5.83248 -2.4997,13.9563 0,8.12381 4.3744,13.33139 4.5827,4.99927 12.4982,4.99927 z m 242.0482,-81.44647 q 13.1231,0 22.9133,6.04079 9.7902,5.83248 14.1646,17.70575 4.3744,11.66497 0.8332,29.37072 l -12.4982,62.90751 h -47.0764 l 11.4566,-56.86672 q 2.0831,-10.20685 -0.8332,-14.78951 -2.9162,-4.79097 -8.5404,-4.79097 -6.4574,0 -11.2484,4.58267 -4.7909,4.37436 -7.0823,15.41442 l -11.2483,56.45011 h -47.0765 l 11.4566,-56.86672 q 2.0831,-10.20685 -0.8332,-14.78951 -2.9162,-4.79097 -8.5404,-4.79097 -6.4574,0 -11.4567,4.79097 -4.7909,4.58266 -7.0823,16.03933 l -11.04,55.6169 h -47.0765 l 22.705,-113.94174 h 44.3686 l -4.791,23.95484 -6.874,-0.83321 q 7.7072,-12.91478 18.9556,-18.95557 11.2483,-6.24909 22.9133,-6.24909 9.3736,0 17.4975,3.74945 8.3321,3.54116 13.9563,11.04006 5.6241,7.29061 6.6657,18.74727 l -12.2899,-3.95775 q 7.2906,-13.95631 19.5805,-21.66352 12.2898,-7.91551 28.1209,-7.91551 z"
       id="text4"
       aria-label=".com" />
  </g>
</svg>
